<mxfile host="Electron" modified="2023-10-15T01:08:57.448Z" agent="Mozilla/5.0 (Windows NT 10.0; Win64; x64) AppleWebKit/537.36 (KHTML, like Gecko) draw.io/22.0.0 Chrome/114.0.5735.289 Electron/25.8.3 Safari/537.36" etag="NXLWf1ufl4Q-a5jQh-HO" version="22.0.0" type="device">
  <diagram name="Page-1" id="5s-wlmWOtwtpA-FyZhSt">
    <mxGraphModel dx="2424" dy="1654" grid="1" gridSize="10" guides="1" tooltips="1" connect="1" arrows="1" fold="1" page="1" pageScale="1" pageWidth="850" pageHeight="1100" math="0" shadow="0">
      <root>
        <mxCell id="0" />
        <mxCell id="1" parent="0" />
        <mxCell id="CRAgmdTt5sWdyrLSF9-_-9" value="&amp;nbsp; &amp;nbsp; &amp;nbsp; &amp;nbsp; &amp;nbsp; &amp;nbsp; &amp;nbsp; &amp;nbsp;&amp;lt;&amp;lt;abstract&amp;gt;&amp;gt;&amp;nbsp; &amp;nbsp; &amp;nbsp; &amp;nbsp; &amp;nbsp; &amp;nbsp; &amp;nbsp;&lt;br style=&quot;padding: 0px; margin: 0px; font-style: italic;&quot;&gt;&lt;span style=&quot;font-style: italic;&quot;&gt;AbstractFactory&lt;/span&gt;" style="swimlane;fontStyle=1;align=center;verticalAlign=top;childLayout=stackLayout;horizontal=1;startSize=50;horizontalStack=0;resizeParent=1;resizeParentMax=0;resizeLast=0;collapsible=1;marginBottom=0;whiteSpace=wrap;html=1;" vertex="1" parent="1">
          <mxGeometry x="160" y="70" width="380" height="106" as="geometry" />
        </mxCell>
        <mxCell id="CRAgmdTt5sWdyrLSF9-_-10" value="+ field: type" style="text;strokeColor=none;fillColor=none;align=left;verticalAlign=top;spacingLeft=4;spacingRight=4;overflow=hidden;rotatable=0;points=[[0,0.5],[1,0.5]];portConstraint=eastwest;whiteSpace=wrap;html=1;" vertex="1" parent="CRAgmdTt5sWdyrLSF9-_-9">
          <mxGeometry y="50" width="380" height="22" as="geometry" />
        </mxCell>
        <mxCell id="CRAgmdTt5sWdyrLSF9-_-11" value="" style="line;strokeWidth=1;fillColor=none;align=left;verticalAlign=middle;spacingTop=-1;spacingLeft=3;spacingRight=3;rotatable=0;labelPosition=right;points=[];portConstraint=eastwest;strokeColor=inherit;" vertex="1" parent="CRAgmdTt5sWdyrLSF9-_-9">
          <mxGeometry y="72" width="380" height="8" as="geometry" />
        </mxCell>
        <mxCell id="CRAgmdTt5sWdyrLSF9-_-12" value="+ method(type): type" style="text;strokeColor=none;fillColor=none;align=left;verticalAlign=top;spacingLeft=4;spacingRight=4;overflow=hidden;rotatable=0;points=[[0,0.5],[1,0.5]];portConstraint=eastwest;whiteSpace=wrap;html=1;" vertex="1" parent="CRAgmdTt5sWdyrLSF9-_-9">
          <mxGeometry y="80" width="380" height="26" as="geometry" />
        </mxCell>
        <mxCell id="CRAgmdTt5sWdyrLSF9-_-111" value="&lt;&lt;enumeration&gt;&gt; &#xa;Type" style="swimlane;fontStyle=1;align=center;verticalAlign=top;childLayout=stackLayout;horizontal=1;startSize=48;horizontalStack=0;resizeParent=1;resizeParentMax=0;resizeLast=0;collapsible=1;marginBottom=0;" vertex="1" parent="1">
          <mxGeometry x="910" y="130" width="160" height="186" as="geometry" />
        </mxCell>
        <mxCell id="CRAgmdTt5sWdyrLSF9-_-112" value="Auto" style="text;strokeColor=none;fillColor=none;align=left;verticalAlign=top;spacingLeft=4;spacingRight=4;overflow=hidden;rotatable=0;points=[[0,0.5],[1,0.5]];portConstraint=eastwest;" vertex="1" parent="CRAgmdTt5sWdyrLSF9-_-111">
          <mxGeometry y="48" width="160" height="26" as="geometry" />
        </mxCell>
        <mxCell id="CRAgmdTt5sWdyrLSF9-_-113" value="Mascotas" style="text;strokeColor=none;fillColor=none;align=left;verticalAlign=top;spacingLeft=4;spacingRight=4;overflow=hidden;rotatable=0;points=[[0,0.5],[1,0.5]];portConstraint=eastwest;" vertex="1" parent="CRAgmdTt5sWdyrLSF9-_-111">
          <mxGeometry y="74" width="160" height="26" as="geometry" />
        </mxCell>
        <mxCell id="CRAgmdTt5sWdyrLSF9-_-228" value="Vida" style="text;strokeColor=none;fillColor=none;align=left;verticalAlign=top;spacingLeft=4;spacingRight=4;overflow=hidden;rotatable=0;points=[[0,0.5],[1,0.5]];portConstraint=eastwest;" vertex="1" parent="CRAgmdTt5sWdyrLSF9-_-111">
          <mxGeometry y="100" width="160" height="26" as="geometry" />
        </mxCell>
        <mxCell id="CRAgmdTt5sWdyrLSF9-_-229" value="Casa" style="text;strokeColor=none;fillColor=none;align=left;verticalAlign=top;spacingLeft=4;spacingRight=4;overflow=hidden;rotatable=0;points=[[0,0.5],[1,0.5]];portConstraint=eastwest;" vertex="1" parent="CRAgmdTt5sWdyrLSF9-_-111">
          <mxGeometry y="126" width="160" height="26" as="geometry" />
        </mxCell>
        <mxCell id="CRAgmdTt5sWdyrLSF9-_-230" value="Estudio" style="text;strokeColor=none;fillColor=none;align=left;verticalAlign=top;spacingLeft=4;spacingRight=4;overflow=hidden;rotatable=0;points=[[0,0.5],[1,0.5]];portConstraint=eastwest;" vertex="1" parent="CRAgmdTt5sWdyrLSF9-_-111">
          <mxGeometry y="152" width="160" height="26" as="geometry" />
        </mxCell>
        <mxCell id="CRAgmdTt5sWdyrLSF9-_-114" value="" style="line;strokeWidth=1;fillColor=none;align=left;verticalAlign=middle;spacingTop=-1;spacingLeft=3;spacingRight=3;rotatable=0;labelPosition=right;points=[];portConstraint=eastwest;" vertex="1" parent="CRAgmdTt5sWdyrLSF9-_-111">
          <mxGeometry y="178" width="160" height="8" as="geometry" />
        </mxCell>
        <mxCell id="CRAgmdTt5sWdyrLSF9-_-115" value="Aseguradora1Factory" style="swimlane;fontStyle=1;align=center;verticalAlign=top;childLayout=stackLayout;horizontal=1;startSize=26;horizontalStack=0;resizeParent=1;resizeParentMax=0;resizeLast=0;collapsible=1;marginBottom=0;" vertex="1" parent="1">
          <mxGeometry x="-120" y="290" width="210" height="164" as="geometry" />
        </mxCell>
        <mxCell id="CRAgmdTt5sWdyrLSF9-_-116" value="" style="line;strokeWidth=1;fillColor=none;align=left;verticalAlign=middle;spacingTop=-1;spacingLeft=3;spacingRight=3;rotatable=0;labelPosition=right;points=[];portConstraint=eastwest;" vertex="1" parent="CRAgmdTt5sWdyrLSF9-_-115">
          <mxGeometry y="26" width="210" height="8" as="geometry" />
        </mxCell>
        <mxCell id="CRAgmdTt5sWdyrLSF9-_-146" value="+ makeSeguroAuto(): Seguro" style="text;strokeColor=none;fillColor=none;align=left;verticalAlign=top;spacingLeft=4;spacingRight=4;overflow=hidden;rotatable=0;points=[[0,0.5],[1,0.5]];portConstraint=eastwest;" vertex="1" parent="CRAgmdTt5sWdyrLSF9-_-115">
          <mxGeometry y="34" width="210" height="26" as="geometry" />
        </mxCell>
        <mxCell id="CRAgmdTt5sWdyrLSF9-_-147" value="+ makeSeguroCasa(): Seguro" style="text;strokeColor=none;fillColor=none;align=left;verticalAlign=top;spacingLeft=4;spacingRight=4;overflow=hidden;rotatable=0;points=[[0,0.5],[1,0.5]];portConstraint=eastwest;" vertex="1" parent="CRAgmdTt5sWdyrLSF9-_-115">
          <mxGeometry y="60" width="210" height="26" as="geometry" />
        </mxCell>
        <mxCell id="CRAgmdTt5sWdyrLSF9-_-148" value="+ makeSeguroVida(): Seguro" style="text;strokeColor=none;fillColor=none;align=left;verticalAlign=top;spacingLeft=4;spacingRight=4;overflow=hidden;rotatable=0;points=[[0,0.5],[1,0.5]];portConstraint=eastwest;" vertex="1" parent="CRAgmdTt5sWdyrLSF9-_-115">
          <mxGeometry y="86" width="210" height="26" as="geometry" />
        </mxCell>
        <mxCell id="CRAgmdTt5sWdyrLSF9-_-204" value="+ makeSeguroMascotas(): Seguro" style="text;strokeColor=none;fillColor=none;align=left;verticalAlign=top;spacingLeft=4;spacingRight=4;overflow=hidden;rotatable=0;points=[[0,0.5],[1,0.5]];portConstraint=eastwest;" vertex="1" parent="CRAgmdTt5sWdyrLSF9-_-115">
          <mxGeometry y="112" width="210" height="26" as="geometry" />
        </mxCell>
        <mxCell id="CRAgmdTt5sWdyrLSF9-_-117" value="+ makeSeguroEstudio(): Seguro" style="text;strokeColor=none;fillColor=none;align=left;verticalAlign=top;spacingLeft=4;spacingRight=4;overflow=hidden;rotatable=0;points=[[0,0.5],[1,0.5]];portConstraint=eastwest;" vertex="1" parent="CRAgmdTt5sWdyrLSF9-_-115">
          <mxGeometry y="138" width="210" height="26" as="geometry" />
        </mxCell>
        <mxCell id="CRAgmdTt5sWdyrLSF9-_-119" value="&amp;lt;&amp;lt;abstract&amp;gt;&amp;gt; Seguro base" style="swimlane;fontStyle=1;align=center;verticalAlign=top;childLayout=stackLayout;horizontal=1;startSize=26;horizontalStack=0;resizeParent=1;resizeParentMax=0;resizeLast=0;collapsible=1;marginBottom=0;whiteSpace=wrap;html=1;" vertex="1" parent="1">
          <mxGeometry x="-80" y="1310" width="160" height="164" as="geometry" />
        </mxCell>
        <mxCell id="CRAgmdTt5sWdyrLSF9-_-120" value="cliente" style="text;strokeColor=none;fillColor=none;align=left;verticalAlign=top;spacingLeft=4;spacingRight=4;overflow=hidden;rotatable=0;points=[[0,0.5],[1,0.5]];portConstraint=eastwest;whiteSpace=wrap;html=1;" vertex="1" parent="CRAgmdTt5sWdyrLSF9-_-119">
          <mxGeometry y="26" width="160" height="26" as="geometry" />
        </mxCell>
        <mxCell id="CRAgmdTt5sWdyrLSF9-_-161" value="fee" style="text;strokeColor=none;fillColor=none;align=left;verticalAlign=top;spacingLeft=4;spacingRight=4;overflow=hidden;rotatable=0;points=[[0,0.5],[1,0.5]];portConstraint=eastwest;whiteSpace=wrap;html=1;" vertex="1" parent="CRAgmdTt5sWdyrLSF9-_-119">
          <mxGeometry y="52" width="160" height="26" as="geometry" />
        </mxCell>
        <mxCell id="CRAgmdTt5sWdyrLSF9-_-162" value="risk" style="text;strokeColor=none;fillColor=none;align=left;verticalAlign=top;spacingLeft=4;spacingRight=4;overflow=hidden;rotatable=0;points=[[0,0.5],[1,0.5]];portConstraint=eastwest;whiteSpace=wrap;html=1;" vertex="1" parent="CRAgmdTt5sWdyrLSF9-_-119">
          <mxGeometry y="78" width="160" height="26" as="geometry" />
        </mxCell>
        <mxCell id="CRAgmdTt5sWdyrLSF9-_-163" value="insuranceAmount" style="text;strokeColor=none;fillColor=none;align=left;verticalAlign=top;spacingLeft=4;spacingRight=4;overflow=hidden;rotatable=0;points=[[0,0.5],[1,0.5]];portConstraint=eastwest;whiteSpace=wrap;html=1;" vertex="1" parent="CRAgmdTt5sWdyrLSF9-_-119">
          <mxGeometry y="104" width="160" height="26" as="geometry" />
        </mxCell>
        <mxCell id="CRAgmdTt5sWdyrLSF9-_-121" value="" style="line;strokeWidth=1;fillColor=none;align=left;verticalAlign=middle;spacingTop=-1;spacingLeft=3;spacingRight=3;rotatable=0;labelPosition=right;points=[];portConstraint=eastwest;strokeColor=inherit;" vertex="1" parent="CRAgmdTt5sWdyrLSF9-_-119">
          <mxGeometry y="130" width="160" height="8" as="geometry" />
        </mxCell>
        <mxCell id="CRAgmdTt5sWdyrLSF9-_-122" value="+ method(type): type" style="text;strokeColor=none;fillColor=none;align=left;verticalAlign=top;spacingLeft=4;spacingRight=4;overflow=hidden;rotatable=0;points=[[0,0.5],[1,0.5]];portConstraint=eastwest;whiteSpace=wrap;html=1;" vertex="1" parent="CRAgmdTt5sWdyrLSF9-_-119">
          <mxGeometry y="138" width="160" height="26" as="geometry" />
        </mxCell>
        <mxCell id="CRAgmdTt5sWdyrLSF9-_-123" value="Aseguradora2Factory" style="swimlane;fontStyle=1;align=center;verticalAlign=top;childLayout=stackLayout;horizontal=1;startSize=26;horizontalStack=0;resizeParent=1;resizeParentMax=0;resizeLast=0;collapsible=1;marginBottom=0;" vertex="1" parent="1">
          <mxGeometry x="120" y="290" width="220" height="164" as="geometry" />
        </mxCell>
        <mxCell id="CRAgmdTt5sWdyrLSF9-_-124" value="" style="line;strokeWidth=1;fillColor=none;align=left;verticalAlign=middle;spacingTop=-1;spacingLeft=3;spacingRight=3;rotatable=0;labelPosition=right;points=[];portConstraint=eastwest;" vertex="1" parent="CRAgmdTt5sWdyrLSF9-_-123">
          <mxGeometry y="26" width="220" height="8" as="geometry" />
        </mxCell>
        <mxCell id="CRAgmdTt5sWdyrLSF9-_-149" value="+ makeSeguroAuto(): Seguro" style="text;strokeColor=none;fillColor=none;align=left;verticalAlign=top;spacingLeft=4;spacingRight=4;overflow=hidden;rotatable=0;points=[[0,0.5],[1,0.5]];portConstraint=eastwest;" vertex="1" parent="CRAgmdTt5sWdyrLSF9-_-123">
          <mxGeometry y="34" width="220" height="26" as="geometry" />
        </mxCell>
        <mxCell id="CRAgmdTt5sWdyrLSF9-_-152" value="+ makeSeguroMascotas(): Seguro" style="text;strokeColor=none;fillColor=none;align=left;verticalAlign=top;spacingLeft=4;spacingRight=4;overflow=hidden;rotatable=0;points=[[0,0.5],[1,0.5]];portConstraint=eastwest;" vertex="1" parent="CRAgmdTt5sWdyrLSF9-_-123">
          <mxGeometry y="60" width="220" height="26" as="geometry" />
        </mxCell>
        <mxCell id="CRAgmdTt5sWdyrLSF9-_-151" value="+ makeSeguroVida(): Seguro" style="text;strokeColor=none;fillColor=none;align=left;verticalAlign=top;spacingLeft=4;spacingRight=4;overflow=hidden;rotatable=0;points=[[0,0.5],[1,0.5]];portConstraint=eastwest;" vertex="1" parent="CRAgmdTt5sWdyrLSF9-_-123">
          <mxGeometry y="86" width="220" height="26" as="geometry" />
        </mxCell>
        <mxCell id="CRAgmdTt5sWdyrLSF9-_-150" value="+ makeSeguroCasa(): Seguro" style="text;strokeColor=none;fillColor=none;align=left;verticalAlign=top;spacingLeft=4;spacingRight=4;overflow=hidden;rotatable=0;points=[[0,0.5],[1,0.5]];portConstraint=eastwest;" vertex="1" parent="CRAgmdTt5sWdyrLSF9-_-123">
          <mxGeometry y="112" width="220" height="26" as="geometry" />
        </mxCell>
        <mxCell id="CRAgmdTt5sWdyrLSF9-_-205" value="+ makeSeguroEstudio(): Seguro" style="text;strokeColor=none;fillColor=none;align=left;verticalAlign=top;spacingLeft=4;spacingRight=4;overflow=hidden;rotatable=0;points=[[0,0.5],[1,0.5]];portConstraint=eastwest;" vertex="1" parent="CRAgmdTt5sWdyrLSF9-_-123">
          <mxGeometry y="138" width="220" height="26" as="geometry" />
        </mxCell>
        <mxCell id="CRAgmdTt5sWdyrLSF9-_-127" value="Aseguradora3Factory" style="swimlane;fontStyle=1;align=center;verticalAlign=top;childLayout=stackLayout;horizontal=1;startSize=26;horizontalStack=0;resizeParent=1;resizeParentMax=0;resizeLast=0;collapsible=1;marginBottom=0;" vertex="1" parent="1">
          <mxGeometry x="360" y="290" width="210" height="164" as="geometry" />
        </mxCell>
        <mxCell id="CRAgmdTt5sWdyrLSF9-_-128" value="" style="line;strokeWidth=1;fillColor=none;align=left;verticalAlign=middle;spacingTop=-1;spacingLeft=3;spacingRight=3;rotatable=0;labelPosition=right;points=[];portConstraint=eastwest;" vertex="1" parent="CRAgmdTt5sWdyrLSF9-_-127">
          <mxGeometry y="26" width="210" height="8" as="geometry" />
        </mxCell>
        <mxCell id="CRAgmdTt5sWdyrLSF9-_-153" value="+ makeSeguroAuto(): Seguro" style="text;strokeColor=none;fillColor=none;align=left;verticalAlign=top;spacingLeft=4;spacingRight=4;overflow=hidden;rotatable=0;points=[[0,0.5],[1,0.5]];portConstraint=eastwest;" vertex="1" parent="CRAgmdTt5sWdyrLSF9-_-127">
          <mxGeometry y="34" width="210" height="26" as="geometry" />
        </mxCell>
        <mxCell id="CRAgmdTt5sWdyrLSF9-_-156" value="+ makeSeguroMascotas(): Seguro" style="text;strokeColor=none;fillColor=none;align=left;verticalAlign=top;spacingLeft=4;spacingRight=4;overflow=hidden;rotatable=0;points=[[0,0.5],[1,0.5]];portConstraint=eastwest;" vertex="1" parent="CRAgmdTt5sWdyrLSF9-_-127">
          <mxGeometry y="60" width="210" height="26" as="geometry" />
        </mxCell>
        <mxCell id="CRAgmdTt5sWdyrLSF9-_-155" value="+ makeSeguroVida(): Seguro" style="text;strokeColor=none;fillColor=none;align=left;verticalAlign=top;spacingLeft=4;spacingRight=4;overflow=hidden;rotatable=0;points=[[0,0.5],[1,0.5]];portConstraint=eastwest;" vertex="1" parent="CRAgmdTt5sWdyrLSF9-_-127">
          <mxGeometry y="86" width="210" height="26" as="geometry" />
        </mxCell>
        <mxCell id="CRAgmdTt5sWdyrLSF9-_-154" value="+ makeSeguroCasa(): Seguro" style="text;strokeColor=none;fillColor=none;align=left;verticalAlign=top;spacingLeft=4;spacingRight=4;overflow=hidden;rotatable=0;points=[[0,0.5],[1,0.5]];portConstraint=eastwest;" vertex="1" parent="CRAgmdTt5sWdyrLSF9-_-127">
          <mxGeometry y="112" width="210" height="26" as="geometry" />
        </mxCell>
        <mxCell id="CRAgmdTt5sWdyrLSF9-_-206" value="+ makeSeguroEstudio(): Seguro" style="text;strokeColor=none;fillColor=none;align=left;verticalAlign=top;spacingLeft=4;spacingRight=4;overflow=hidden;rotatable=0;points=[[0,0.5],[1,0.5]];portConstraint=eastwest;" vertex="1" parent="CRAgmdTt5sWdyrLSF9-_-127">
          <mxGeometry y="138" width="210" height="26" as="geometry" />
        </mxCell>
        <mxCell id="CRAgmdTt5sWdyrLSF9-_-130" value="Aseguradora4Factory" style="swimlane;fontStyle=1;align=center;verticalAlign=top;childLayout=stackLayout;horizontal=1;startSize=26;horizontalStack=0;resizeParent=1;resizeParentMax=0;resizeLast=0;collapsible=1;marginBottom=0;" vertex="1" parent="1">
          <mxGeometry x="610" y="290" width="210" height="164" as="geometry" />
        </mxCell>
        <mxCell id="CRAgmdTt5sWdyrLSF9-_-131" value="" style="line;strokeWidth=1;fillColor=none;align=left;verticalAlign=middle;spacingTop=-1;spacingLeft=3;spacingRight=3;rotatable=0;labelPosition=right;points=[];portConstraint=eastwest;" vertex="1" parent="CRAgmdTt5sWdyrLSF9-_-130">
          <mxGeometry y="26" width="210" height="8" as="geometry" />
        </mxCell>
        <mxCell id="CRAgmdTt5sWdyrLSF9-_-157" value="+ makeSeguroAuto(): Seguro" style="text;strokeColor=none;fillColor=none;align=left;verticalAlign=top;spacingLeft=4;spacingRight=4;overflow=hidden;rotatable=0;points=[[0,0.5],[1,0.5]];portConstraint=eastwest;" vertex="1" parent="CRAgmdTt5sWdyrLSF9-_-130">
          <mxGeometry y="34" width="210" height="26" as="geometry" />
        </mxCell>
        <mxCell id="CRAgmdTt5sWdyrLSF9-_-160" value="+ makeSeguroMascotas(): Seguro" style="text;strokeColor=none;fillColor=none;align=left;verticalAlign=top;spacingLeft=4;spacingRight=4;overflow=hidden;rotatable=0;points=[[0,0.5],[1,0.5]];portConstraint=eastwest;" vertex="1" parent="CRAgmdTt5sWdyrLSF9-_-130">
          <mxGeometry y="60" width="210" height="26" as="geometry" />
        </mxCell>
        <mxCell id="CRAgmdTt5sWdyrLSF9-_-159" value="+ makeSeguroVida(): Seguro" style="text;strokeColor=none;fillColor=none;align=left;verticalAlign=top;spacingLeft=4;spacingRight=4;overflow=hidden;rotatable=0;points=[[0,0.5],[1,0.5]];portConstraint=eastwest;" vertex="1" parent="CRAgmdTt5sWdyrLSF9-_-130">
          <mxGeometry y="86" width="210" height="26" as="geometry" />
        </mxCell>
        <mxCell id="CRAgmdTt5sWdyrLSF9-_-158" value="+ makeSeguroCasa(): Seguro" style="text;strokeColor=none;fillColor=none;align=left;verticalAlign=top;spacingLeft=4;spacingRight=4;overflow=hidden;rotatable=0;points=[[0,0.5],[1,0.5]];portConstraint=eastwest;" vertex="1" parent="CRAgmdTt5sWdyrLSF9-_-130">
          <mxGeometry y="112" width="210" height="26" as="geometry" />
        </mxCell>
        <mxCell id="CRAgmdTt5sWdyrLSF9-_-207" value="+ makeSeguroEstudio(): Seguro" style="text;strokeColor=none;fillColor=none;align=left;verticalAlign=top;spacingLeft=4;spacingRight=4;overflow=hidden;rotatable=0;points=[[0,0.5],[1,0.5]];portConstraint=eastwest;" vertex="1" parent="CRAgmdTt5sWdyrLSF9-_-130">
          <mxGeometry y="138" width="210" height="26" as="geometry" />
        </mxCell>
        <mxCell id="CRAgmdTt5sWdyrLSF9-_-133" value="Extends" style="endArrow=block;endSize=16;endFill=0;html=1;rounded=0;exitX=0.75;exitY=0;exitDx=0;exitDy=0;" edge="1" parent="1" source="CRAgmdTt5sWdyrLSF9-_-115" target="CRAgmdTt5sWdyrLSF9-_-9">
          <mxGeometry width="160" relative="1" as="geometry">
            <mxPoint x="-50" y="287" as="sourcePoint" />
            <mxPoint x="150" y="165" as="targetPoint" />
          </mxGeometry>
        </mxCell>
        <mxCell id="CRAgmdTt5sWdyrLSF9-_-134" value="Extends" style="endArrow=block;endSize=16;endFill=0;html=1;rounded=0;" edge="1" parent="1" source="CRAgmdTt5sWdyrLSF9-_-130" target="CRAgmdTt5sWdyrLSF9-_-9">
          <mxGeometry width="160" relative="1" as="geometry">
            <mxPoint x="60" y="300" as="sourcePoint" />
            <mxPoint x="265" y="186" as="targetPoint" />
          </mxGeometry>
        </mxCell>
        <mxCell id="CRAgmdTt5sWdyrLSF9-_-135" value="Extends" style="endArrow=block;endSize=16;endFill=0;html=1;rounded=0;" edge="1" parent="1" source="CRAgmdTt5sWdyrLSF9-_-127" target="CRAgmdTt5sWdyrLSF9-_-9">
          <mxGeometry width="160" relative="1" as="geometry">
            <mxPoint x="614" y="300" as="sourcePoint" />
            <mxPoint x="441" y="186" as="targetPoint" />
          </mxGeometry>
        </mxCell>
        <mxCell id="CRAgmdTt5sWdyrLSF9-_-136" value="Extends" style="endArrow=block;endSize=16;endFill=0;html=1;rounded=0;" edge="1" parent="1" source="CRAgmdTt5sWdyrLSF9-_-123" target="CRAgmdTt5sWdyrLSF9-_-9">
          <mxGeometry width="160" relative="1" as="geometry">
            <mxPoint x="624" y="310" as="sourcePoint" />
            <mxPoint x="451" y="196" as="targetPoint" />
          </mxGeometry>
        </mxCell>
        <mxCell id="CRAgmdTt5sWdyrLSF9-_-137" value="vendedo seguro" style="swimlane;fontStyle=1;align=center;verticalAlign=top;childLayout=stackLayout;horizontal=1;startSize=26;horizontalStack=0;resizeParent=1;resizeParentMax=0;resizeLast=0;collapsible=1;marginBottom=0;whiteSpace=wrap;html=1;" vertex="1" parent="1">
          <mxGeometry x="500" y="1333" width="220" height="138" as="geometry" />
        </mxCell>
        <mxCell id="CRAgmdTt5sWdyrLSF9-_-138" value="~ iBuilder: IBuilder" style="text;strokeColor=none;fillColor=none;align=left;verticalAlign=top;spacingLeft=4;spacingRight=4;overflow=hidden;rotatable=0;points=[[0,0.5],[1,0.5]];portConstraint=eastwest;whiteSpace=wrap;html=1;" vertex="1" parent="CRAgmdTt5sWdyrLSF9-_-137">
          <mxGeometry y="26" width="220" height="26" as="geometry" />
        </mxCell>
        <mxCell id="CRAgmdTt5sWdyrLSF9-_-139" value="" style="line;strokeWidth=1;fillColor=none;align=left;verticalAlign=middle;spacingTop=-1;spacingLeft=3;spacingRight=3;rotatable=0;labelPosition=right;points=[];portConstraint=eastwest;strokeColor=inherit;" vertex="1" parent="CRAgmdTt5sWdyrLSF9-_-137">
          <mxGeometry y="52" width="220" height="8" as="geometry" />
        </mxCell>
        <mxCell id="CRAgmdTt5sWdyrLSF9-_-140" value="~ vendedor(IBuilder iBuilder)" style="text;strokeColor=none;fillColor=none;align=left;verticalAlign=top;spacingLeft=4;spacingRight=4;overflow=hidden;rotatable=0;points=[[0,0.5],[1,0.5]];portConstraint=eastwest;whiteSpace=wrap;html=1;" vertex="1" parent="CRAgmdTt5sWdyrLSF9-_-137">
          <mxGeometry y="60" width="220" height="26" as="geometry" />
        </mxCell>
        <mxCell id="CRAgmdTt5sWdyrLSF9-_-169" value="~ createSeguro(): void" style="text;strokeColor=none;fillColor=none;align=left;verticalAlign=top;spacingLeft=4;spacingRight=4;overflow=hidden;rotatable=0;points=[[0,0.5],[1,0.5]];portConstraint=eastwest;" vertex="1" parent="CRAgmdTt5sWdyrLSF9-_-137">
          <mxGeometry y="86" width="220" height="26" as="geometry" />
        </mxCell>
        <mxCell id="CRAgmdTt5sWdyrLSF9-_-170" value="~ getSeguro(): Seguro" style="text;strokeColor=none;fillColor=none;align=left;verticalAlign=top;spacingLeft=4;spacingRight=4;overflow=hidden;rotatable=0;points=[[0,0.5],[1,0.5]];portConstraint=eastwest;" vertex="1" parent="CRAgmdTt5sWdyrLSF9-_-137">
          <mxGeometry y="112" width="220" height="26" as="geometry" />
        </mxCell>
        <mxCell id="CRAgmdTt5sWdyrLSF9-_-141" value="&amp;lt;&amp;lt;interface&amp;gt;&amp;gt; IBuilder" style="swimlane;fontStyle=1;align=center;verticalAlign=top;childLayout=stackLayout;horizontal=1;startSize=26;horizontalStack=0;resizeParent=1;resizeParentMax=0;resizeLast=0;collapsible=1;marginBottom=0;whiteSpace=wrap;html=1;" vertex="1" parent="1">
          <mxGeometry x="190" y="1320" width="220" height="164" as="geometry" />
        </mxCell>
        <mxCell id="CRAgmdTt5sWdyrLSF9-_-143" value="" style="line;strokeWidth=1;fillColor=none;align=left;verticalAlign=middle;spacingTop=-1;spacingLeft=3;spacingRight=3;rotatable=0;labelPosition=right;points=[];portConstraint=eastwest;strokeColor=inherit;" vertex="1" parent="CRAgmdTt5sWdyrLSF9-_-141">
          <mxGeometry y="26" width="220" height="8" as="geometry" />
        </mxCell>
        <mxCell id="CRAgmdTt5sWdyrLSF9-_-167" value="buildinsuranceAmount" style="text;strokeColor=none;fillColor=none;align=left;verticalAlign=top;spacingLeft=4;spacingRight=4;overflow=hidden;rotatable=0;points=[[0,0.5],[1,0.5]];portConstraint=eastwest;whiteSpace=wrap;html=1;" vertex="1" parent="CRAgmdTt5sWdyrLSF9-_-141">
          <mxGeometry y="34" width="220" height="26" as="geometry" />
        </mxCell>
        <mxCell id="CRAgmdTt5sWdyrLSF9-_-166" value="buildrisk" style="text;strokeColor=none;fillColor=none;align=left;verticalAlign=top;spacingLeft=4;spacingRight=4;overflow=hidden;rotatable=0;points=[[0,0.5],[1,0.5]];portConstraint=eastwest;whiteSpace=wrap;html=1;" vertex="1" parent="CRAgmdTt5sWdyrLSF9-_-141">
          <mxGeometry y="60" width="220" height="26" as="geometry" />
        </mxCell>
        <mxCell id="CRAgmdTt5sWdyrLSF9-_-165" value="buildfee" style="text;strokeColor=none;fillColor=none;align=left;verticalAlign=top;spacingLeft=4;spacingRight=4;overflow=hidden;rotatable=0;points=[[0,0.5],[1,0.5]];portConstraint=eastwest;whiteSpace=wrap;html=1;" vertex="1" parent="CRAgmdTt5sWdyrLSF9-_-141">
          <mxGeometry y="86" width="220" height="26" as="geometry" />
        </mxCell>
        <mxCell id="CRAgmdTt5sWdyrLSF9-_-164" value="buildcliente" style="text;strokeColor=none;fillColor=none;align=left;verticalAlign=top;spacingLeft=4;spacingRight=4;overflow=hidden;rotatable=0;points=[[0,0.5],[1,0.5]];portConstraint=eastwest;whiteSpace=wrap;html=1;" vertex="1" parent="CRAgmdTt5sWdyrLSF9-_-141">
          <mxGeometry y="112" width="220" height="26" as="geometry" />
        </mxCell>
        <mxCell id="CRAgmdTt5sWdyrLSF9-_-144" value="~ buildSeguro(): void" style="text;strokeColor=none;fillColor=none;align=left;verticalAlign=top;spacingLeft=4;spacingRight=4;overflow=hidden;rotatable=0;points=[[0,0.5],[1,0.5]];portConstraint=eastwest;whiteSpace=wrap;html=1;" vertex="1" parent="CRAgmdTt5sWdyrLSF9-_-141">
          <mxGeometry y="138" width="220" height="26" as="geometry" />
        </mxCell>
        <mxCell id="CRAgmdTt5sWdyrLSF9-_-171" value="Seguro Auto" style="swimlane;fontStyle=1;align=center;verticalAlign=top;childLayout=stackLayout;horizontal=1;startSize=26;horizontalStack=0;resizeParent=1;resizeParentMax=0;resizeLast=0;collapsible=1;marginBottom=0;whiteSpace=wrap;html=1;" vertex="1" parent="1">
          <mxGeometry x="-160" y="988" width="160" height="182" as="geometry" />
        </mxCell>
        <mxCell id="CRAgmdTt5sWdyrLSF9-_-172" value="SeguroAutoBuilder()" style="text;strokeColor=none;fillColor=none;align=left;verticalAlign=top;spacingLeft=4;spacingRight=4;overflow=hidden;rotatable=0;points=[[0,0.5],[1,0.5]];portConstraint=eastwest;whiteSpace=wrap;html=1;" vertex="1" parent="CRAgmdTt5sWdyrLSF9-_-171">
          <mxGeometry y="26" width="160" height="26" as="geometry" />
        </mxCell>
        <mxCell id="CRAgmdTt5sWdyrLSF9-_-178" value="buildcliente" style="text;strokeColor=none;fillColor=none;align=left;verticalAlign=top;spacingLeft=4;spacingRight=4;overflow=hidden;rotatable=0;points=[[0,0.5],[1,0.5]];portConstraint=eastwest;whiteSpace=wrap;html=1;" vertex="1" parent="CRAgmdTt5sWdyrLSF9-_-171">
          <mxGeometry y="52" width="160" height="26" as="geometry" />
        </mxCell>
        <mxCell id="CRAgmdTt5sWdyrLSF9-_-173" value="buildfee" style="text;strokeColor=none;fillColor=none;align=left;verticalAlign=top;spacingLeft=4;spacingRight=4;overflow=hidden;rotatable=0;points=[[0,0.5],[1,0.5]];portConstraint=eastwest;whiteSpace=wrap;html=1;" vertex="1" parent="CRAgmdTt5sWdyrLSF9-_-171">
          <mxGeometry y="78" width="160" height="26" as="geometry" />
        </mxCell>
        <mxCell id="CRAgmdTt5sWdyrLSF9-_-174" value="buildrisk" style="text;strokeColor=none;fillColor=none;align=left;verticalAlign=top;spacingLeft=4;spacingRight=4;overflow=hidden;rotatable=0;points=[[0,0.5],[1,0.5]];portConstraint=eastwest;whiteSpace=wrap;html=1;" vertex="1" parent="CRAgmdTt5sWdyrLSF9-_-171">
          <mxGeometry y="104" width="160" height="26" as="geometry" />
        </mxCell>
        <mxCell id="CRAgmdTt5sWdyrLSF9-_-182" value="buildinsuranceAmount" style="text;strokeColor=none;fillColor=none;align=left;verticalAlign=top;spacingLeft=4;spacingRight=4;overflow=hidden;rotatable=0;points=[[0,0.5],[1,0.5]];portConstraint=eastwest;whiteSpace=wrap;html=1;" vertex="1" parent="CRAgmdTt5sWdyrLSF9-_-171">
          <mxGeometry y="130" width="160" height="26" as="geometry" />
        </mxCell>
        <mxCell id="CRAgmdTt5sWdyrLSF9-_-175" value="getSeguro():Seguro" style="text;strokeColor=none;fillColor=none;align=left;verticalAlign=top;spacingLeft=4;spacingRight=4;overflow=hidden;rotatable=0;points=[[0,0.5],[1,0.5]];portConstraint=eastwest;whiteSpace=wrap;html=1;" vertex="1" parent="CRAgmdTt5sWdyrLSF9-_-171">
          <mxGeometry y="156" width="160" height="26" as="geometry" />
        </mxCell>
        <mxCell id="CRAgmdTt5sWdyrLSF9-_-183" value="Seguro Casa" style="swimlane;fontStyle=1;align=center;verticalAlign=top;childLayout=stackLayout;horizontal=1;startSize=26;horizontalStack=0;resizeParent=1;resizeParentMax=0;resizeLast=0;collapsible=1;marginBottom=0;whiteSpace=wrap;html=1;" vertex="1" parent="1">
          <mxGeometry x="50" y="988" width="160" height="182" as="geometry" />
        </mxCell>
        <mxCell id="CRAgmdTt5sWdyrLSF9-_-184" value="SeguroAutoBuilder()" style="text;strokeColor=none;fillColor=none;align=left;verticalAlign=top;spacingLeft=4;spacingRight=4;overflow=hidden;rotatable=0;points=[[0,0.5],[1,0.5]];portConstraint=eastwest;whiteSpace=wrap;html=1;" vertex="1" parent="CRAgmdTt5sWdyrLSF9-_-183">
          <mxGeometry y="26" width="160" height="26" as="geometry" />
        </mxCell>
        <mxCell id="CRAgmdTt5sWdyrLSF9-_-185" value="buildcliente" style="text;strokeColor=none;fillColor=none;align=left;verticalAlign=top;spacingLeft=4;spacingRight=4;overflow=hidden;rotatable=0;points=[[0,0.5],[1,0.5]];portConstraint=eastwest;whiteSpace=wrap;html=1;" vertex="1" parent="CRAgmdTt5sWdyrLSF9-_-183">
          <mxGeometry y="52" width="160" height="26" as="geometry" />
        </mxCell>
        <mxCell id="CRAgmdTt5sWdyrLSF9-_-186" value="buildfee" style="text;strokeColor=none;fillColor=none;align=left;verticalAlign=top;spacingLeft=4;spacingRight=4;overflow=hidden;rotatable=0;points=[[0,0.5],[1,0.5]];portConstraint=eastwest;whiteSpace=wrap;html=1;" vertex="1" parent="CRAgmdTt5sWdyrLSF9-_-183">
          <mxGeometry y="78" width="160" height="26" as="geometry" />
        </mxCell>
        <mxCell id="CRAgmdTt5sWdyrLSF9-_-187" value="buildrisk" style="text;strokeColor=none;fillColor=none;align=left;verticalAlign=top;spacingLeft=4;spacingRight=4;overflow=hidden;rotatable=0;points=[[0,0.5],[1,0.5]];portConstraint=eastwest;whiteSpace=wrap;html=1;" vertex="1" parent="CRAgmdTt5sWdyrLSF9-_-183">
          <mxGeometry y="104" width="160" height="26" as="geometry" />
        </mxCell>
        <mxCell id="CRAgmdTt5sWdyrLSF9-_-188" value="buildinsuranceAmount" style="text;strokeColor=none;fillColor=none;align=left;verticalAlign=top;spacingLeft=4;spacingRight=4;overflow=hidden;rotatable=0;points=[[0,0.5],[1,0.5]];portConstraint=eastwest;whiteSpace=wrap;html=1;" vertex="1" parent="CRAgmdTt5sWdyrLSF9-_-183">
          <mxGeometry y="130" width="160" height="26" as="geometry" />
        </mxCell>
        <mxCell id="CRAgmdTt5sWdyrLSF9-_-189" value="getSeguro():Seguro" style="text;strokeColor=none;fillColor=none;align=left;verticalAlign=top;spacingLeft=4;spacingRight=4;overflow=hidden;rotatable=0;points=[[0,0.5],[1,0.5]];portConstraint=eastwest;whiteSpace=wrap;html=1;" vertex="1" parent="CRAgmdTt5sWdyrLSF9-_-183">
          <mxGeometry y="156" width="160" height="26" as="geometry" />
        </mxCell>
        <mxCell id="CRAgmdTt5sWdyrLSF9-_-190" value="Seguro Vida" style="swimlane;fontStyle=1;align=center;verticalAlign=top;childLayout=stackLayout;horizontal=1;startSize=26;horizontalStack=0;resizeParent=1;resizeParentMax=0;resizeLast=0;collapsible=1;marginBottom=0;whiteSpace=wrap;html=1;" vertex="1" parent="1">
          <mxGeometry x="250" y="988" width="160" height="182" as="geometry" />
        </mxCell>
        <mxCell id="CRAgmdTt5sWdyrLSF9-_-191" value="SeguroAutoBuilder()" style="text;strokeColor=none;fillColor=none;align=left;verticalAlign=top;spacingLeft=4;spacingRight=4;overflow=hidden;rotatable=0;points=[[0,0.5],[1,0.5]];portConstraint=eastwest;whiteSpace=wrap;html=1;" vertex="1" parent="CRAgmdTt5sWdyrLSF9-_-190">
          <mxGeometry y="26" width="160" height="26" as="geometry" />
        </mxCell>
        <mxCell id="CRAgmdTt5sWdyrLSF9-_-192" value="buildcliente" style="text;strokeColor=none;fillColor=none;align=left;verticalAlign=top;spacingLeft=4;spacingRight=4;overflow=hidden;rotatable=0;points=[[0,0.5],[1,0.5]];portConstraint=eastwest;whiteSpace=wrap;html=1;" vertex="1" parent="CRAgmdTt5sWdyrLSF9-_-190">
          <mxGeometry y="52" width="160" height="26" as="geometry" />
        </mxCell>
        <mxCell id="CRAgmdTt5sWdyrLSF9-_-193" value="buildfee" style="text;strokeColor=none;fillColor=none;align=left;verticalAlign=top;spacingLeft=4;spacingRight=4;overflow=hidden;rotatable=0;points=[[0,0.5],[1,0.5]];portConstraint=eastwest;whiteSpace=wrap;html=1;" vertex="1" parent="CRAgmdTt5sWdyrLSF9-_-190">
          <mxGeometry y="78" width="160" height="26" as="geometry" />
        </mxCell>
        <mxCell id="CRAgmdTt5sWdyrLSF9-_-194" value="buildrisk" style="text;strokeColor=none;fillColor=none;align=left;verticalAlign=top;spacingLeft=4;spacingRight=4;overflow=hidden;rotatable=0;points=[[0,0.5],[1,0.5]];portConstraint=eastwest;whiteSpace=wrap;html=1;" vertex="1" parent="CRAgmdTt5sWdyrLSF9-_-190">
          <mxGeometry y="104" width="160" height="26" as="geometry" />
        </mxCell>
        <mxCell id="CRAgmdTt5sWdyrLSF9-_-195" value="buildinsuranceAmount" style="text;strokeColor=none;fillColor=none;align=left;verticalAlign=top;spacingLeft=4;spacingRight=4;overflow=hidden;rotatable=0;points=[[0,0.5],[1,0.5]];portConstraint=eastwest;whiteSpace=wrap;html=1;" vertex="1" parent="CRAgmdTt5sWdyrLSF9-_-190">
          <mxGeometry y="130" width="160" height="26" as="geometry" />
        </mxCell>
        <mxCell id="CRAgmdTt5sWdyrLSF9-_-196" value="getSeguro():Seguro" style="text;strokeColor=none;fillColor=none;align=left;verticalAlign=top;spacingLeft=4;spacingRight=4;overflow=hidden;rotatable=0;points=[[0,0.5],[1,0.5]];portConstraint=eastwest;whiteSpace=wrap;html=1;" vertex="1" parent="CRAgmdTt5sWdyrLSF9-_-190">
          <mxGeometry y="156" width="160" height="26" as="geometry" />
        </mxCell>
        <mxCell id="CRAgmdTt5sWdyrLSF9-_-197" value="Seguro Mascotas" style="swimlane;fontStyle=1;align=center;verticalAlign=top;childLayout=stackLayout;horizontal=1;startSize=26;horizontalStack=0;resizeParent=1;resizeParentMax=0;resizeLast=0;collapsible=1;marginBottom=0;whiteSpace=wrap;html=1;" vertex="1" parent="1">
          <mxGeometry x="450" y="988" width="160" height="182" as="geometry" />
        </mxCell>
        <mxCell id="CRAgmdTt5sWdyrLSF9-_-198" value="SeguroAutoBuilder()" style="text;strokeColor=none;fillColor=none;align=left;verticalAlign=top;spacingLeft=4;spacingRight=4;overflow=hidden;rotatable=0;points=[[0,0.5],[1,0.5]];portConstraint=eastwest;whiteSpace=wrap;html=1;" vertex="1" parent="CRAgmdTt5sWdyrLSF9-_-197">
          <mxGeometry y="26" width="160" height="26" as="geometry" />
        </mxCell>
        <mxCell id="CRAgmdTt5sWdyrLSF9-_-199" value="buildcliente" style="text;strokeColor=none;fillColor=none;align=left;verticalAlign=top;spacingLeft=4;spacingRight=4;overflow=hidden;rotatable=0;points=[[0,0.5],[1,0.5]];portConstraint=eastwest;whiteSpace=wrap;html=1;" vertex="1" parent="CRAgmdTt5sWdyrLSF9-_-197">
          <mxGeometry y="52" width="160" height="26" as="geometry" />
        </mxCell>
        <mxCell id="CRAgmdTt5sWdyrLSF9-_-200" value="buildfee" style="text;strokeColor=none;fillColor=none;align=left;verticalAlign=top;spacingLeft=4;spacingRight=4;overflow=hidden;rotatable=0;points=[[0,0.5],[1,0.5]];portConstraint=eastwest;whiteSpace=wrap;html=1;" vertex="1" parent="CRAgmdTt5sWdyrLSF9-_-197">
          <mxGeometry y="78" width="160" height="26" as="geometry" />
        </mxCell>
        <mxCell id="CRAgmdTt5sWdyrLSF9-_-201" value="buildrisk" style="text;strokeColor=none;fillColor=none;align=left;verticalAlign=top;spacingLeft=4;spacingRight=4;overflow=hidden;rotatable=0;points=[[0,0.5],[1,0.5]];portConstraint=eastwest;whiteSpace=wrap;html=1;" vertex="1" parent="CRAgmdTt5sWdyrLSF9-_-197">
          <mxGeometry y="104" width="160" height="26" as="geometry" />
        </mxCell>
        <mxCell id="CRAgmdTt5sWdyrLSF9-_-202" value="buildinsuranceAmount" style="text;strokeColor=none;fillColor=none;align=left;verticalAlign=top;spacingLeft=4;spacingRight=4;overflow=hidden;rotatable=0;points=[[0,0.5],[1,0.5]];portConstraint=eastwest;whiteSpace=wrap;html=1;" vertex="1" parent="CRAgmdTt5sWdyrLSF9-_-197">
          <mxGeometry y="130" width="160" height="26" as="geometry" />
        </mxCell>
        <mxCell id="CRAgmdTt5sWdyrLSF9-_-203" value="getSeguro():Seguro" style="text;strokeColor=none;fillColor=none;align=left;verticalAlign=top;spacingLeft=4;spacingRight=4;overflow=hidden;rotatable=0;points=[[0,0.5],[1,0.5]];portConstraint=eastwest;whiteSpace=wrap;html=1;" vertex="1" parent="CRAgmdTt5sWdyrLSF9-_-197">
          <mxGeometry y="156" width="160" height="26" as="geometry" />
        </mxCell>
        <mxCell id="CRAgmdTt5sWdyrLSF9-_-208" value="Seguro Estudio" style="swimlane;fontStyle=1;align=center;verticalAlign=top;childLayout=stackLayout;horizontal=1;startSize=26;horizontalStack=0;resizeParent=1;resizeParentMax=0;resizeLast=0;collapsible=1;marginBottom=0;whiteSpace=wrap;html=1;" vertex="1" parent="1">
          <mxGeometry x="660" y="988" width="160" height="182" as="geometry" />
        </mxCell>
        <mxCell id="CRAgmdTt5sWdyrLSF9-_-209" value="SeguroAutoBuilder()" style="text;strokeColor=none;fillColor=none;align=left;verticalAlign=top;spacingLeft=4;spacingRight=4;overflow=hidden;rotatable=0;points=[[0,0.5],[1,0.5]];portConstraint=eastwest;whiteSpace=wrap;html=1;" vertex="1" parent="CRAgmdTt5sWdyrLSF9-_-208">
          <mxGeometry y="26" width="160" height="26" as="geometry" />
        </mxCell>
        <mxCell id="CRAgmdTt5sWdyrLSF9-_-210" value="buildcliente" style="text;strokeColor=none;fillColor=none;align=left;verticalAlign=top;spacingLeft=4;spacingRight=4;overflow=hidden;rotatable=0;points=[[0,0.5],[1,0.5]];portConstraint=eastwest;whiteSpace=wrap;html=1;" vertex="1" parent="CRAgmdTt5sWdyrLSF9-_-208">
          <mxGeometry y="52" width="160" height="26" as="geometry" />
        </mxCell>
        <mxCell id="CRAgmdTt5sWdyrLSF9-_-211" value="buildfee" style="text;strokeColor=none;fillColor=none;align=left;verticalAlign=top;spacingLeft=4;spacingRight=4;overflow=hidden;rotatable=0;points=[[0,0.5],[1,0.5]];portConstraint=eastwest;whiteSpace=wrap;html=1;" vertex="1" parent="CRAgmdTt5sWdyrLSF9-_-208">
          <mxGeometry y="78" width="160" height="26" as="geometry" />
        </mxCell>
        <mxCell id="CRAgmdTt5sWdyrLSF9-_-212" value="buildrisk" style="text;strokeColor=none;fillColor=none;align=left;verticalAlign=top;spacingLeft=4;spacingRight=4;overflow=hidden;rotatable=0;points=[[0,0.5],[1,0.5]];portConstraint=eastwest;whiteSpace=wrap;html=1;" vertex="1" parent="CRAgmdTt5sWdyrLSF9-_-208">
          <mxGeometry y="104" width="160" height="26" as="geometry" />
        </mxCell>
        <mxCell id="CRAgmdTt5sWdyrLSF9-_-213" value="buildinsuranceAmount" style="text;strokeColor=none;fillColor=none;align=left;verticalAlign=top;spacingLeft=4;spacingRight=4;overflow=hidden;rotatable=0;points=[[0,0.5],[1,0.5]];portConstraint=eastwest;whiteSpace=wrap;html=1;" vertex="1" parent="CRAgmdTt5sWdyrLSF9-_-208">
          <mxGeometry y="130" width="160" height="26" as="geometry" />
        </mxCell>
        <mxCell id="CRAgmdTt5sWdyrLSF9-_-214" value="getSeguro():Seguro" style="text;strokeColor=none;fillColor=none;align=left;verticalAlign=top;spacingLeft=4;spacingRight=4;overflow=hidden;rotatable=0;points=[[0,0.5],[1,0.5]];portConstraint=eastwest;whiteSpace=wrap;html=1;" vertex="1" parent="CRAgmdTt5sWdyrLSF9-_-208">
          <mxGeometry y="156" width="160" height="26" as="geometry" />
        </mxCell>
        <mxCell id="CRAgmdTt5sWdyrLSF9-_-215" value="" style="endArrow=diamondThin;endFill=0;endSize=24;html=1;rounded=0;" edge="1" parent="1" source="CRAgmdTt5sWdyrLSF9-_-141" target="CRAgmdTt5sWdyrLSF9-_-137">
          <mxGeometry width="160" relative="1" as="geometry">
            <mxPoint x="680" y="1516.5" as="sourcePoint" />
            <mxPoint x="778" y="1513.5" as="targetPoint" />
          </mxGeometry>
        </mxCell>
        <mxCell id="CRAgmdTt5sWdyrLSF9-_-216" value="Use" style="endArrow=open;endSize=12;dashed=1;html=1;rounded=0;exitX=0;exitY=0.5;exitDx=0;exitDy=0;entryX=-0.013;entryY=0.011;entryDx=0;entryDy=0;entryPerimeter=0;" edge="1" parent="1">
          <mxGeometry width="160" relative="1" as="geometry">
            <mxPoint x="500" y="1484" as="sourcePoint" />
            <mxPoint x="498" y="1471" as="targetPoint" />
            <Array as="points">
              <mxPoint x="470" y="1505" />
              <mxPoint x="430" y="1485" />
            </Array>
          </mxGeometry>
        </mxCell>
        <mxCell id="CRAgmdTt5sWdyrLSF9-_-217" value="" style="endArrow=block;dashed=1;endFill=0;endSize=12;html=1;rounded=0;" edge="1" parent="1" source="CRAgmdTt5sWdyrLSF9-_-171" target="CRAgmdTt5sWdyrLSF9-_-141">
          <mxGeometry width="160" relative="1" as="geometry">
            <mxPoint x="264.5" y="1039" as="sourcePoint" />
            <mxPoint x="135.5" y="828" as="targetPoint" />
          </mxGeometry>
        </mxCell>
        <mxCell id="CRAgmdTt5sWdyrLSF9-_-218" value="" style="endArrow=block;dashed=1;endFill=0;endSize=12;html=1;rounded=0;" edge="1" parent="1" source="CRAgmdTt5sWdyrLSF9-_-183" target="CRAgmdTt5sWdyrLSF9-_-141">
          <mxGeometry width="160" relative="1" as="geometry">
            <mxPoint x="10" y="1019" as="sourcePoint" />
            <mxPoint x="236" y="822" as="targetPoint" />
          </mxGeometry>
        </mxCell>
        <mxCell id="CRAgmdTt5sWdyrLSF9-_-219" value="" style="endArrow=block;dashed=1;endFill=0;endSize=12;html=1;rounded=0;" edge="1" parent="1" source="CRAgmdTt5sWdyrLSF9-_-190" target="CRAgmdTt5sWdyrLSF9-_-141">
          <mxGeometry width="160" relative="1" as="geometry">
            <mxPoint x="20" y="1029" as="sourcePoint" />
            <mxPoint x="246" y="832" as="targetPoint" />
          </mxGeometry>
        </mxCell>
        <mxCell id="CRAgmdTt5sWdyrLSF9-_-221" value="" style="endArrow=block;dashed=1;endFill=0;endSize=12;html=1;rounded=0;" edge="1" parent="1" source="CRAgmdTt5sWdyrLSF9-_-197" target="CRAgmdTt5sWdyrLSF9-_-141">
          <mxGeometry width="160" relative="1" as="geometry">
            <mxPoint x="30" y="1039" as="sourcePoint" />
            <mxPoint x="256" y="842" as="targetPoint" />
          </mxGeometry>
        </mxCell>
        <mxCell id="CRAgmdTt5sWdyrLSF9-_-222" value="" style="endArrow=block;dashed=1;endFill=0;endSize=12;html=1;rounded=0;" edge="1" parent="1" source="CRAgmdTt5sWdyrLSF9-_-208" target="CRAgmdTt5sWdyrLSF9-_-141">
          <mxGeometry width="160" relative="1" as="geometry">
            <mxPoint x="40" y="1049" as="sourcePoint" />
            <mxPoint x="266" y="852" as="targetPoint" />
          </mxGeometry>
        </mxCell>
        <mxCell id="CRAgmdTt5sWdyrLSF9-_-223" value="" style="endArrow=diamondThin;endFill=1;endSize=24;html=1;rounded=0;" edge="1" parent="1" source="CRAgmdTt5sWdyrLSF9-_-119" target="CRAgmdTt5sWdyrLSF9-_-171">
          <mxGeometry width="160" relative="1" as="geometry">
            <mxPoint x="-100" y="874" as="sourcePoint" />
            <mxPoint x="-20" y="870" as="targetPoint" />
          </mxGeometry>
        </mxCell>
        <mxCell id="CRAgmdTt5sWdyrLSF9-_-224" value="" style="endArrow=diamondThin;endFill=1;endSize=24;html=1;rounded=0;" edge="1" parent="1" source="CRAgmdTt5sWdyrLSF9-_-119" target="CRAgmdTt5sWdyrLSF9-_-183">
          <mxGeometry width="160" relative="1" as="geometry">
            <mxPoint x="7" y="812" as="sourcePoint" />
            <mxPoint x="-45" y="998" as="targetPoint" />
          </mxGeometry>
        </mxCell>
        <mxCell id="CRAgmdTt5sWdyrLSF9-_-225" value="" style="endArrow=diamondThin;endFill=1;endSize=24;html=1;rounded=0;" edge="1" parent="1" source="CRAgmdTt5sWdyrLSF9-_-119" target="CRAgmdTt5sWdyrLSF9-_-190">
          <mxGeometry width="160" relative="1" as="geometry">
            <mxPoint x="55" y="812" as="sourcePoint" />
            <mxPoint x="112" y="998" as="targetPoint" />
          </mxGeometry>
        </mxCell>
        <mxCell id="CRAgmdTt5sWdyrLSF9-_-226" value="" style="endArrow=diamondThin;endFill=1;endSize=24;html=1;rounded=0;" edge="1" parent="1" source="CRAgmdTt5sWdyrLSF9-_-119" target="CRAgmdTt5sWdyrLSF9-_-197">
          <mxGeometry width="160" relative="1" as="geometry">
            <mxPoint x="101" y="812" as="sourcePoint" />
            <mxPoint x="261" y="998" as="targetPoint" />
          </mxGeometry>
        </mxCell>
        <mxCell id="CRAgmdTt5sWdyrLSF9-_-227" value="" style="endArrow=diamondThin;endFill=1;endSize=24;html=1;rounded=0;" edge="1" parent="1" source="CRAgmdTt5sWdyrLSF9-_-119" target="CRAgmdTt5sWdyrLSF9-_-208">
          <mxGeometry width="160" relative="1" as="geometry">
            <mxPoint x="111" y="822" as="sourcePoint" />
            <mxPoint x="271" y="1008" as="targetPoint" />
          </mxGeometry>
        </mxCell>
        <mxCell id="CRAgmdTt5sWdyrLSF9-_-231" value="" style="endArrow=diamondThin;endFill=1;endSize=24;html=1;rounded=0;exitX=0.427;exitY=-0.008;exitDx=0;exitDy=0;exitPerimeter=0;" edge="1" parent="1" source="CRAgmdTt5sWdyrLSF9-_-115" target="CRAgmdTt5sWdyrLSF9-_-9">
          <mxGeometry width="160" relative="1" as="geometry">
            <mxPoint x="-470" y="390" as="sourcePoint" />
            <mxPoint x="-350" y="140" as="targetPoint" />
            <Array as="points">
              <mxPoint x="60" y="230" />
            </Array>
          </mxGeometry>
        </mxCell>
        <mxCell id="CRAgmdTt5sWdyrLSF9-_-232" value="" style="endArrow=diamondThin;endFill=1;endSize=24;html=1;rounded=0;" edge="1" parent="1" source="CRAgmdTt5sWdyrLSF9-_-123" target="CRAgmdTt5sWdyrLSF9-_-9">
          <mxGeometry width="160" relative="1" as="geometry">
            <mxPoint x="-20" y="299" as="sourcePoint" />
            <mxPoint x="238" y="186" as="targetPoint" />
            <Array as="points">
              <mxPoint x="240" y="230" />
            </Array>
          </mxGeometry>
        </mxCell>
        <mxCell id="CRAgmdTt5sWdyrLSF9-_-233" value="" style="endArrow=diamondThin;endFill=1;endSize=24;html=1;rounded=0;" edge="1" parent="1" source="CRAgmdTt5sWdyrLSF9-_-127" target="CRAgmdTt5sWdyrLSF9-_-9">
          <mxGeometry width="160" relative="1" as="geometry">
            <mxPoint x="-10" y="309" as="sourcePoint" />
            <mxPoint x="248" y="196" as="targetPoint" />
            <Array as="points">
              <mxPoint x="450" y="240" />
            </Array>
          </mxGeometry>
        </mxCell>
        <mxCell id="CRAgmdTt5sWdyrLSF9-_-234" value="" style="endArrow=diamondThin;endFill=1;endSize=24;html=1;rounded=0;" edge="1" parent="1" source="CRAgmdTt5sWdyrLSF9-_-130" target="CRAgmdTt5sWdyrLSF9-_-9">
          <mxGeometry width="160" relative="1" as="geometry">
            <mxPoint y="319" as="sourcePoint" />
            <mxPoint x="258" y="206" as="targetPoint" />
            <Array as="points">
              <mxPoint x="580" y="230" />
            </Array>
          </mxGeometry>
        </mxCell>
        <mxCell id="CRAgmdTt5sWdyrLSF9-_-242" value="Use" style="endArrow=open;endSize=12;dashed=1;html=1;rounded=0;" edge="1" parent="1" source="CRAgmdTt5sWdyrLSF9-_-115" target="CRAgmdTt5sWdyrLSF9-_-171">
          <mxGeometry width="160" relative="1" as="geometry">
            <mxPoint x="-200" y="700" as="sourcePoint" />
            <mxPoint x="-40" y="700" as="targetPoint" />
          </mxGeometry>
        </mxCell>
        <mxCell id="CRAgmdTt5sWdyrLSF9-_-243" value="Use" style="endArrow=open;endSize=12;dashed=1;html=1;rounded=0;" edge="1" parent="1" source="CRAgmdTt5sWdyrLSF9-_-115" target="CRAgmdTt5sWdyrLSF9-_-183">
          <mxGeometry width="160" relative="1" as="geometry">
            <mxPoint x="-13" y="464" as="sourcePoint" />
            <mxPoint x="-62" y="998" as="targetPoint" />
          </mxGeometry>
        </mxCell>
        <mxCell id="CRAgmdTt5sWdyrLSF9-_-244" value="Use" style="endArrow=open;endSize=12;dashed=1;html=1;rounded=0;" edge="1" parent="1" source="CRAgmdTt5sWdyrLSF9-_-115" target="CRAgmdTt5sWdyrLSF9-_-190">
          <mxGeometry width="160" relative="1" as="geometry">
            <mxPoint x="-3" y="474" as="sourcePoint" />
            <mxPoint x="-52" y="1008" as="targetPoint" />
          </mxGeometry>
        </mxCell>
        <mxCell id="CRAgmdTt5sWdyrLSF9-_-245" value="Use" style="endArrow=open;endSize=12;dashed=1;html=1;rounded=0;" edge="1" parent="1" source="CRAgmdTt5sWdyrLSF9-_-115" target="CRAgmdTt5sWdyrLSF9-_-197">
          <mxGeometry width="160" relative="1" as="geometry">
            <mxPoint x="7" y="484" as="sourcePoint" />
            <mxPoint x="-42" y="1018" as="targetPoint" />
          </mxGeometry>
        </mxCell>
        <mxCell id="CRAgmdTt5sWdyrLSF9-_-246" value="Use" style="endArrow=open;endSize=12;dashed=1;html=1;rounded=0;" edge="1" parent="1" source="CRAgmdTt5sWdyrLSF9-_-115" target="CRAgmdTt5sWdyrLSF9-_-208">
          <mxGeometry width="160" relative="1" as="geometry">
            <mxPoint x="17" y="494" as="sourcePoint" />
            <mxPoint x="-32" y="1028" as="targetPoint" />
          </mxGeometry>
        </mxCell>
        <mxCell id="CRAgmdTt5sWdyrLSF9-_-247" value="Use" style="endArrow=open;endSize=12;dashed=1;html=1;rounded=0;" edge="1" parent="1" source="CRAgmdTt5sWdyrLSF9-_-123" target="CRAgmdTt5sWdyrLSF9-_-171">
          <mxGeometry width="160" relative="1" as="geometry">
            <mxPoint x="27" y="504" as="sourcePoint" />
            <mxPoint x="-22" y="1038" as="targetPoint" />
          </mxGeometry>
        </mxCell>
        <mxCell id="CRAgmdTt5sWdyrLSF9-_-248" value="Use" style="endArrow=open;endSize=12;dashed=1;html=1;rounded=0;" edge="1" parent="1" source="CRAgmdTt5sWdyrLSF9-_-123" target="CRAgmdTt5sWdyrLSF9-_-183">
          <mxGeometry width="160" relative="1" as="geometry">
            <mxPoint x="37" y="514" as="sourcePoint" />
            <mxPoint x="-12" y="1048" as="targetPoint" />
          </mxGeometry>
        </mxCell>
        <mxCell id="CRAgmdTt5sWdyrLSF9-_-249" value="Use" style="endArrow=open;endSize=12;dashed=1;html=1;rounded=0;" edge="1" parent="1" source="CRAgmdTt5sWdyrLSF9-_-123" target="CRAgmdTt5sWdyrLSF9-_-190">
          <mxGeometry width="160" relative="1" as="geometry">
            <mxPoint x="47" y="524" as="sourcePoint" />
            <mxPoint x="-2" y="1058" as="targetPoint" />
          </mxGeometry>
        </mxCell>
        <mxCell id="CRAgmdTt5sWdyrLSF9-_-250" value="Use" style="endArrow=open;endSize=12;dashed=1;html=1;rounded=0;" edge="1" parent="1" source="CRAgmdTt5sWdyrLSF9-_-123" target="CRAgmdTt5sWdyrLSF9-_-190">
          <mxGeometry width="160" relative="1" as="geometry">
            <mxPoint x="57" y="534" as="sourcePoint" />
            <mxPoint x="8" y="1068" as="targetPoint" />
          </mxGeometry>
        </mxCell>
        <mxCell id="CRAgmdTt5sWdyrLSF9-_-251" value="Use" style="endArrow=open;endSize=12;dashed=1;html=1;rounded=0;" edge="1" parent="1" source="CRAgmdTt5sWdyrLSF9-_-123" target="CRAgmdTt5sWdyrLSF9-_-197">
          <mxGeometry width="160" relative="1" as="geometry">
            <mxPoint x="67" y="544" as="sourcePoint" />
            <mxPoint x="18" y="1078" as="targetPoint" />
          </mxGeometry>
        </mxCell>
        <mxCell id="CRAgmdTt5sWdyrLSF9-_-252" value="Use" style="endArrow=open;endSize=12;dashed=1;html=1;rounded=0;" edge="1" parent="1" source="CRAgmdTt5sWdyrLSF9-_-123" target="CRAgmdTt5sWdyrLSF9-_-208">
          <mxGeometry width="160" relative="1" as="geometry">
            <mxPoint x="77" y="554" as="sourcePoint" />
            <mxPoint x="28" y="1088" as="targetPoint" />
          </mxGeometry>
        </mxCell>
        <mxCell id="CRAgmdTt5sWdyrLSF9-_-254" value="Use" style="endArrow=open;endSize=12;dashed=1;html=1;rounded=0;" edge="1" parent="1" source="CRAgmdTt5sWdyrLSF9-_-127" target="CRAgmdTt5sWdyrLSF9-_-171">
          <mxGeometry width="160" relative="1" as="geometry">
            <mxPoint x="87" y="564" as="sourcePoint" />
            <mxPoint x="38" y="1098" as="targetPoint" />
          </mxGeometry>
        </mxCell>
        <mxCell id="CRAgmdTt5sWdyrLSF9-_-255" value="Use" style="endArrow=open;endSize=12;dashed=1;html=1;rounded=0;" edge="1" parent="1" source="CRAgmdTt5sWdyrLSF9-_-127" target="CRAgmdTt5sWdyrLSF9-_-183">
          <mxGeometry width="160" relative="1" as="geometry">
            <mxPoint x="412" y="464" as="sourcePoint" />
            <mxPoint y="998" as="targetPoint" />
          </mxGeometry>
        </mxCell>
        <mxCell id="CRAgmdTt5sWdyrLSF9-_-256" value="Use" style="endArrow=open;endSize=12;dashed=1;html=1;rounded=0;" edge="1" parent="1" source="CRAgmdTt5sWdyrLSF9-_-127" target="CRAgmdTt5sWdyrLSF9-_-190">
          <mxGeometry width="160" relative="1" as="geometry">
            <mxPoint x="422" y="474" as="sourcePoint" />
            <mxPoint x="10" y="1008" as="targetPoint" />
          </mxGeometry>
        </mxCell>
        <mxCell id="CRAgmdTt5sWdyrLSF9-_-257" value="Use" style="endArrow=open;endSize=12;dashed=1;html=1;rounded=0;" edge="1" parent="1" source="CRAgmdTt5sWdyrLSF9-_-127" target="CRAgmdTt5sWdyrLSF9-_-197">
          <mxGeometry width="160" relative="1" as="geometry">
            <mxPoint x="432" y="484" as="sourcePoint" />
            <mxPoint x="20" y="1018" as="targetPoint" />
          </mxGeometry>
        </mxCell>
        <mxCell id="CRAgmdTt5sWdyrLSF9-_-259" value="Use" style="endArrow=open;endSize=12;dashed=1;html=1;rounded=0;" edge="1" parent="1" source="CRAgmdTt5sWdyrLSF9-_-127" target="CRAgmdTt5sWdyrLSF9-_-208">
          <mxGeometry width="160" relative="1" as="geometry">
            <mxPoint x="442" y="494" as="sourcePoint" />
            <mxPoint x="30" y="1028" as="targetPoint" />
          </mxGeometry>
        </mxCell>
        <mxCell id="CRAgmdTt5sWdyrLSF9-_-260" value="Use" style="endArrow=open;endSize=12;dashed=1;html=1;rounded=0;" edge="1" parent="1" source="CRAgmdTt5sWdyrLSF9-_-130" target="CRAgmdTt5sWdyrLSF9-_-171">
          <mxGeometry width="160" relative="1" as="geometry">
            <mxPoint x="452" y="504" as="sourcePoint" />
            <mxPoint x="40" y="1038" as="targetPoint" />
          </mxGeometry>
        </mxCell>
        <mxCell id="CRAgmdTt5sWdyrLSF9-_-261" value="Use" style="endArrow=open;endSize=12;dashed=1;html=1;rounded=0;" edge="1" parent="1" source="CRAgmdTt5sWdyrLSF9-_-130" target="CRAgmdTt5sWdyrLSF9-_-183">
          <mxGeometry width="160" relative="1" as="geometry">
            <mxPoint x="633" y="464" as="sourcePoint" />
            <mxPoint x="10" y="1018" as="targetPoint" />
          </mxGeometry>
        </mxCell>
        <mxCell id="CRAgmdTt5sWdyrLSF9-_-262" value="Use" style="endArrow=open;endSize=12;dashed=1;html=1;rounded=0;" edge="1" parent="1" source="CRAgmdTt5sWdyrLSF9-_-130" target="CRAgmdTt5sWdyrLSF9-_-190">
          <mxGeometry width="160" relative="1" as="geometry">
            <mxPoint x="643" y="474" as="sourcePoint" />
            <mxPoint x="20" y="1028" as="targetPoint" />
          </mxGeometry>
        </mxCell>
        <mxCell id="CRAgmdTt5sWdyrLSF9-_-263" value="Use" style="endArrow=open;endSize=12;dashed=1;html=1;rounded=0;" edge="1" parent="1" source="CRAgmdTt5sWdyrLSF9-_-130" target="CRAgmdTt5sWdyrLSF9-_-197">
          <mxGeometry width="160" relative="1" as="geometry">
            <mxPoint x="680" y="464" as="sourcePoint" />
            <mxPoint x="390" y="998" as="targetPoint" />
          </mxGeometry>
        </mxCell>
        <mxCell id="CRAgmdTt5sWdyrLSF9-_-264" value="Use" style="endArrow=open;endSize=12;dashed=1;html=1;rounded=0;" edge="1" parent="1" source="CRAgmdTt5sWdyrLSF9-_-130" target="CRAgmdTt5sWdyrLSF9-_-208">
          <mxGeometry width="160" relative="1" as="geometry">
            <mxPoint x="690" y="474" as="sourcePoint" />
            <mxPoint x="400" y="1008" as="targetPoint" />
          </mxGeometry>
        </mxCell>
      </root>
    </mxGraphModel>
  </diagram>
</mxfile>
